<svg xmlns="http://www.w3.org/2000/svg" viewBox="0 0 512 512">
  <defs>
    <linearGradient id="g" x1="0" y1="0" x2="1" y2="1">
      <stop offset="0" stop-color="#4CAF50"/>
      <stop offset="1" stop-color="#2ecc71"/>
    </linearGradient>
  </defs>
  <rect width="512" height="512" rx="112" fill="url(#g)"/>
  <rect x="112" y="128" width="288" height="272" rx="28" fill="#ffffff" opacity="0.96"/>
  <rect x="112" y="164" width="288" height="40" rx="20" fill="#eaf6ee"/>
  <circle cx="176" cy="184" r="10" fill="#4CAF50"/>
  <circle cx="336" cy="184" r="10" fill="#4CAF50"/>
  <rect x="156" y="248" width="200" height="22" rx="11" fill="#dfe7df"/>
  <rect x="156" y="296" width="160" height="22" rx="11" fill="#dfe7df"/>
  <rect x="156" y="344" width="120" height="22" rx="11" fill="#dfe7df"/>
  <path d="M358 336c-20 36-58 60-102 60-64 0-116-52-116-116 0-44 24-82 60-102" fill="none" stroke="#4CAF50" stroke-width="20" stroke-linecap="round"/>
  <path d="M300 232l40 40 72-88" fill="none" stroke="#4CAF50" stroke-width="22" stroke-linecap="round" stroke-linejoin="round"/>
</svg>
